<svg xmlns="http://www.w3.org/2000/svg" width="1602.12" height="157.003" viewBox="0 0 1602.12 157.003">
  <g id="menu-bg-blue" transform="translate(1901.764 -1631.624)">
    <path id="Caminho_1764" data-name="Caminho 1764" d="M.614,0S1602.391-.274,1602.328-.163c-.014.006,1.1,142.372-1.538,143.781C1090.031,5.768,491.476,129.054,2.415,128.394-.419,128.664.614,0,.614,0Z" transform="translate(-1902.194 1631.814)" fill="#213366"/>
    <path id="Caminho_1765" data-name="Caminho 1765" d="M.614,0H1598.185s2.634,148.855,0,150.33C1088.257,6.037,491.236,138.441,2.972,137.749.142,138.032.614,0,.614,0Z" transform="translate(-1902 1632)" fill="#213366" opacity="0.532"/>
    <path id="Caminho_1766" data-name="Caminho 1766" d="M-.037-.207,1598.185,0s2.634,155.091,0,156.627C1109.064,16.963,487.905,133.759-.359,133.039-3.189,133.334-.037-.207-.037-.207Z" transform="translate(-1899 1632)" fill="#213366" opacity="0.357"/>
    <path id="Caminho_1767" data-name="Caminho 1767" d="M-.037-.207,1598.185,0s2.634,155.091,0,156.627C1109.064,16.963,487.905,133.759-.359,133.039-3.189,133.334-.037-.207-.037-.207Z" transform="translate(-1899 1632)" fill="#213366" opacity="0.357"/>
  </g>
</svg>
